<svg width="548" height="364" viewBox="0 0 548 364" fill="none" xmlns="http://www.w3.org/2000/svg">
<g clip-path="url(#clip0_707_2)">
<path d="M277.613 102.306C272.726 94.2222 266.936 85.591 257.869 82.9513C247.368 79.8944 236.581 85.967 227.431 91.9594C200.068 109.881 173.716 129.302 148.497 150.135L148.525 150.449C168.159 149.095 187.792 147.74 207.426 146.386C221.612 145.407 236.285 144.294 248.821 137.581C253.578 135.034 258.215 131.631 263.605 131.394C270.302 131.1 276.142 135.778 280.731 140.667C307.877 169.582 315.732 213.801 346.187 239.205C326.983 191.83 304.053 146.054 277.613 102.306Z" fill="#F2F2F2"/>
<path d="M444.472 347.562C441.47 343.77 440.244 342.882 437.283 339.056C413.172 307.863 390.511 275.616 369.298 242.316C354.889 219.7 341.195 196.65 328.215 173.165C322.036 162 316.026 150.748 310.185 139.407C305.653 130.615 301.222 121.769 296.892 112.871C295.654 110.33 294.45 107.776 293.253 105.217C290.432 99.1997 287.664 93.1527 284.691 87.2168C281.303 80.4513 277.18 73.3585 270.959 68.8131C268.129 66.6596 264.743 65.3566 261.2 65.0564C256.136 64.7293 251.463 66.8208 247.071 69.1052C214.936 85.8672 184.851 106.883 157.64 130.796C130.359 154.762 105.974 181.839 84.9828 211.474C84.3406 212.391 82.822 211.515 83.4702 210.592C86.0226 206.981 88.6256 203.409 91.2791 199.877C124.274 155.98 164.731 118.231 210.801 88.3561C218.552 83.3316 226.448 78.5427 234.491 73.9895C238.544 71.6934 242.615 69.4265 246.756 67.2999C250.815 65.2142 255.126 63.3387 259.763 63.2686C275.544 63.0232 283.715 80.9011 289.328 92.9307C291.092 96.7166 292.877 100.491 294.684 104.253C301.512 118.538 308.602 132.692 315.955 146.716C320.494 155.375 325.131 163.983 329.868 172.54C344.609 199.187 360.278 225.295 376.873 250.864C398.857 284.732 420.666 314.652 445.71 346.323C446.4 347.2 445.167 348.45 444.472 347.562Z" fill="#E4E4E4"/>
<path d="M156.08 121.968C155.164 120.945 154.252 119.923 153.33 118.9C146.052 110.849 138.243 102.892 128.25 98.2764C123.485 96.0062 118.283 94.8001 113.006 94.7417C107.551 94.7593 102.218 96.1907 97.1781 98.1947C94.7951 99.147 92.4646 100.228 90.1694 101.379C87.5468 102.699 84.971 104.107 82.4072 105.527C77.5944 108.191 72.8441 110.972 68.1562 113.87C58.8286 119.636 49.7932 125.843 41.0498 132.49C36.5174 135.937 32.0785 139.497 27.7331 143.17C23.6914 146.582 19.7315 150.085 15.8534 153.68C15.0241 154.446 13.7858 153.207 14.6151 152.442C15.6372 151.489 16.671 150.543 17.7048 149.608C20.6251 146.967 23.5922 144.377 26.606 141.838C32.1018 137.199 37.74 132.739 43.5204 128.459C52.5092 121.798 61.8074 115.59 71.415 109.833C76.2161 106.958 81.0833 104.205 86.0165 101.572C87.5061 100.777 89.013 100 90.5373 99.2638C93.9961 97.5186 97.59 96.0552 101.284 94.8878C106.517 93.1945 112.053 92.6505 117.515 93.2928C122.789 94.0602 127.87 95.8185 132.49 98.4751C142.303 103.961 149.913 112.444 157.319 120.723C158.066 121.564 156.834 122.809 156.08 121.968Z" fill="#E4E4E4"/>
<path d="M357.128 205.396L380.64 196.794L392.314 192.523C396.116 191.131 399.909 189.548 403.84 188.552C407.255 187.576 410.882 187.622 414.271 188.685C417.294 189.804 420.061 191.52 422.408 193.73C424.805 195.939 427.036 198.322 429.082 200.859C431.623 203.915 434.127 207.002 436.643 210.08C447.024 222.779 457.337 235.534 467.583 248.345C477.828 261.155 488.005 274.019 498.113 286.938C508.246 299.888 518.309 312.893 528.303 325.951C529.527 327.551 530.75 329.152 531.973 330.753C532.648 331.638 534.17 330.765 533.486 329.868C523.418 316.678 513.281 303.542 503.073 290.46C492.84 277.347 482.537 264.289 472.163 251.287C461.789 238.286 451.345 225.34 440.83 212.451C438.211 209.24 435.587 206.033 432.959 202.829C430.742 200.126 428.55 197.394 426.119 194.879C421.656 190.261 416.08 186.181 409.405 186.07C405.48 186.005 401.682 187.25 398.036 188.57C394.105 189.992 390.184 191.441 386.258 192.878L362.581 201.54L356.662 203.706C355.612 204.09 356.066 205.785 357.128 205.396Z" fill="#E4E4E4"/>
<path d="M125.157 108.407C113.208 102.264 97.9066 103.467 86.9268 111.142C107.87 114.756 128.584 119.592 148.963 125.625C140.5 120.664 133.881 112.892 125.157 108.407Z" fill="#F2F2F2"/>
<path d="M86.809 111.121L84.5088 112.991C85.2868 112.336 86.0957 111.723 86.9266 111.142C86.8874 111.135 86.8483 111.127 86.809 111.121Z" fill="#F2F2F2"/>
<path d="M421.523 205.482C419.208 202.664 416.706 199.713 413.244 198.568L410.012 198.696C434.616 242.185 467.845 280.186 507.66 310.366C478.948 275.405 450.235 240.444 421.523 205.482Z" fill="#F2F2F2"/>
<path d="M220.536 182.233C222.031 187.669 225.401 192.401 230.049 195.591C231.845 196.814 233.971 197.988 234.586 200.074C234.909 201.403 234.71 202.806 234.029 203.993C233.35 205.165 232.523 206.245 231.569 207.206L231.482 207.533C227.023 204.889 222.781 201.546 220.318 196.984C217.855 192.423 217.512 186.444 220.536 182.233Z" fill="#F2F2F2"/>
<path d="M368.983 311.608C370.479 317.044 373.848 321.776 378.496 324.966C380.293 326.189 382.418 327.363 383.033 329.449C383.356 330.778 383.157 332.181 382.476 333.368C381.797 334.54 380.97 335.62 380.016 336.581L379.929 336.908C375.471 334.264 371.229 330.921 368.766 326.359C366.303 321.798 365.959 315.819 368.983 311.608Z" fill="#F2F2F2"/>
<path d="M72.7262 302.686C74.2219 308.121 77.5916 312.853 82.239 316.043C84.0357 317.266 86.1615 318.44 86.7762 320.526C87.0996 321.856 86.9003 323.259 86.2196 324.445C85.5401 325.617 84.7134 326.697 83.7596 327.658L83.6725 327.985C79.2137 325.342 74.9718 321.998 72.5089 317.436C70.0459 312.875 69.702 306.896 72.7262 302.686Z" fill="#F2F2F2"/>
<path d="M413.644 65.0059C431.589 65.0059 446.137 50.4538 446.137 32.503C446.137 14.5521 431.589 0 413.644 0C395.699 0 381.151 14.5521 381.151 32.503C381.151 50.4538 395.699 65.0059 413.644 65.0059Z" fill="#6225C5"/>
<path d="M472.281 7.56507C456.534 5.43584 438.556 13.9501 434.474 29.3124C433.446 26.581 431.576 24.2474 429.134 22.6487C426.693 21.05 423.807 20.2691 420.893 20.4186C417.979 20.5682 415.188 21.6406 412.923 23.4809C410.658 25.3211 409.037 27.8339 408.293 30.6563L410.096 31.948C443.842 39.2479 478.775 39.0899 512.453 31.485C501.5 19.9695 488.029 9.69425 472.281 7.56507Z" fill="#F0F0F0"/>
<path d="M404.747 50.9025C389 48.7732 371.021 57.2875 366.94 72.6498C365.911 69.9184 364.041 67.5848 361.6 65.9861C359.159 64.3874 356.273 63.6065 353.359 63.756C350.445 63.9056 347.654 64.978 345.389 66.8183C343.124 68.6585 341.502 71.1713 340.759 73.9937L342.562 75.2854C376.308 82.5853 411.24 82.4273 444.919 74.8224C433.966 63.3069 420.494 53.0317 404.747 50.9025Z" fill="#F0F0F0"/>
<path d="M542.19 59.097C542.124 59.0971 542.059 59.087 541.997 59.0671C373.541 5.77616 225.07 12.7449 130.181 27.975C117.268 30.047 104.32 32.44 91.6969 35.0882C88.4744 35.7635 85.1311 36.4873 81.7601 37.241C77.7343 38.1378 73.762 39.0614 69.953 39.985C68.308 40.3747 66.6951 40.7674 65.1143 41.1632C62.7199 41.7545 60.2903 42.3706 57.6858 43.0477C54.7756 43.7983 51.8186 44.5856 48.8953 45.3879C48.8846 45.3916 48.8737 45.3948 48.8627 45.3972L48.863 45.3978C45.5611 46.2996 42.2766 47.2276 39.1004 48.1544C37.3813 48.651 35.7213 49.1408 34.1313 49.6244C33.9537 49.6736 33.7963 49.7209 33.6367 49.7694L33.2951 49.8733C33.0973 49.9337 32.9019 49.9928 32.7065 50.0489L32.6941 50.0526L32.6944 50.0532L32.1774 50.2138C31.5608 50.4006 30.9591 50.5829 30.3674 50.7646C14.7296 55.5868 6.13292 59.0173 6.04799 59.0509C5.97033 59.0821 5.8873 59.0976 5.80364 59.0967C5.71998 59.0957 5.63733 59.0783 5.5604 59.0453C5.48347 59.0124 5.41377 58.9647 5.35529 58.9048C5.29681 58.845 5.25069 58.7742 5.21956 58.6965C5.18843 58.6188 5.17291 58.5358 5.17387 58.4521C5.17483 58.3684 5.19226 58.2857 5.22516 58.2088C5.25806 58.1318 5.30579 58.0621 5.36563 58.0036C5.42546 57.9451 5.49623 57.899 5.57389 57.8678C5.65944 57.8342 14.2981 54.3862 29.9929 49.546C30.5868 49.3637 31.19 49.1813 31.8084 48.994L32.2887 48.8446C32.3052 48.8384 32.3217 48.8334 32.3385 48.8284C32.5329 48.773 32.7271 48.7139 32.9243 48.6542L33.2665 48.5502C33.437 48.4986 33.605 48.4475 33.777 48.4002C35.3561 47.9198 37.0217 47.4287 38.7451 46.9302C41.9226 46.0028 45.2102 45.0749 48.5146 44.1718C48.5248 44.1681 48.5354 44.1656 48.5457 44.1625C51.4793 43.3577 54.4471 42.5667 57.3666 41.8136C59.9751 41.1358 62.4094 40.5185 64.8079 39.926C66.3954 39.5307 68.0114 39.1372 69.6559 38.7453C73.4693 37.8204 77.4497 36.8956 81.4826 35.9969C84.8589 35.2426 88.2078 34.5169 91.4356 33.841C104.078 31.1884 117.046 28.7916 129.979 26.7166C225.004 11.4647 373.687 4.48471 542.381 57.8522C542.526 57.898 542.65 57.9942 542.73 58.1235C542.811 58.2527 542.842 58.4064 542.819 58.5568C542.796 58.7072 542.72 58.8443 542.604 58.9434C542.489 59.0425 542.342 59.097 542.19 59.097Z" fill="#CCCCCC"/>
<path d="M167.553 267.57C167.333 266.924 166.961 266.341 166.47 265.868C166.289 265.7 166.093 265.548 165.884 265.415C164.221 264.307 161.737 264.058 160.157 265.415C159.997 265.554 159.85 265.705 159.717 265.868C159.245 266.448 158.761 267.015 158.264 267.57C157.449 268.5 156.614 269.399 155.741 270.272C155.493 270.514 155.244 270.763 154.99 271.005C154.843 271.151 154.696 271.291 154.55 271.432C153.989 271.967 153.416 272.483 152.836 272.993C152.53 273.267 152.224 273.535 151.912 273.796C151.447 274.185 150.982 274.574 150.511 274.95C150.466 274.982 150.421 275.013 150.377 275.052C150.364 275.058 150.358 275.071 150.345 275.077C150.339 275.077 150.332 275.077 150.326 275.09C150.309 275.097 150.293 275.108 150.281 275.122C150.141 275.217 150.046 275.281 149.975 275.338C150.001 275.326 150.026 275.307 150.052 275.294C149.937 275.383 149.816 275.472 149.702 275.562C148.587 276.384 147.446 277.174 146.28 277.913C143.396 279.76 140.366 281.369 137.22 282.725C137.01 282.808 136.794 282.897 136.577 282.98C128.342 286.355 119.409 287.672 110.551 286.816C109.646 286.746 108.742 286.651 107.837 286.53C106.792 286.377 105.754 286.192 104.721 285.982C100.792 285.197 96.9474 284.036 93.2407 282.515C88.6038 280.391 84.1938 277.803 80.0779 274.79C79.4408 274.338 78.7973 273.885 78.1538 273.446C78.8865 271.648 79.6065 269.851 80.3073 268.041C80.6577 267.168 80.9954 266.295 81.3267 265.415C83.9325 258.641 86.379 251.802 88.7235 244.939C91.0936 237.986 93.3298 230.992 95.4323 223.958C95.6489 223.244 95.8592 222.531 96.0631 221.817C97.1653 218.101 98.2229 214.377 99.2359 210.645C99.3314 210.282 99.4334 209.925 99.5226 209.561C99.8156 208.491 100.102 207.42 100.383 206.349C101.02 203.934 99.5799 201.047 97.0442 200.467C95.8233 200.154 94.5286 200.327 93.4329 200.95C92.3371 201.573 91.5258 202.597 91.17 203.806C90.8961 204.839 90.6221 205.865 90.3418 206.897C88.9975 211.888 87.5831 216.861 86.0986 221.817C85.882 222.531 85.6654 223.244 85.4488 223.958C82.174 234.754 78.5786 245.442 74.6625 256.021C74.191 257.302 73.7132 258.579 73.229 259.852C72.9932 260.476 72.7575 261.101 72.5154 261.725C72.0503 262.955 71.5725 264.185 71.0947 265.415C70.8207 266.136 70.5403 266.856 70.26 267.57C70.0753 268.022 69.8969 268.475 69.7185 268.921C67.902 268.268 66.0199 267.815 64.1055 267.57L63.7997 267.531C62.3155 267.353 60.8145 267.366 59.3336 267.57C57.1171 267.828 54.9845 268.571 53.0865 269.745C51.1885 270.919 49.5715 272.495 48.3497 274.363C45.3107 279.15 45.3489 285.994 49.6112 290.06C54.0009 294.248 60.646 294.216 65.813 291.596C68.5512 290.114 70.8599 287.95 72.5154 285.312C73.1496 284.356 73.7324 283.367 74.2611 282.349C74.3949 282.438 74.5287 282.527 74.6625 282.623C75.1722 282.98 75.6819 283.343 76.1852 283.7C79.1178 285.825 82.2083 287.724 85.4297 289.378C92.3563 292.823 99.8124 295.079 107.486 296.051C107.659 296.07 107.824 296.096 107.996 296.115C108.844 296.223 109.697 296.306 110.551 296.376C122.798 297.299 135.059 294.792 145.962 289.136C146.885 288.658 147.801 288.157 148.708 287.632C150.116 286.816 151.492 285.95 152.836 285.032C153.569 284.535 154.282 284.031 154.99 283.502C158.08 281.226 160.961 278.677 163.597 275.887C164.597 274.835 165.555 273.749 166.47 272.63C167.336 271.714 167.835 270.512 167.872 269.252C167.867 268.677 167.759 268.107 167.553 267.57ZM62.054 282.75C62.1878 282.655 62.3216 282.553 62.449 282.451C62.4108 282.546 62.226 282.655 62.054 282.75ZM64.0992 280.692C63.9526 280.858 63.8188 281.023 63.6723 281.189C63.2265 281.688 62.7476 282.156 62.2388 282.591C62.1687 282.655 62.0923 282.718 62.0158 282.776C62.015 282.776 62.0141 282.776 62.0133 282.776C62.0126 282.777 62.0119 282.777 62.0113 282.778C62.0107 282.778 62.0102 282.779 62.0099 282.78C62.0096 282.781 62.0094 282.781 62.0094 282.782C61.9174 282.823 61.828 282.87 61.7418 282.922C61.4679 283.088 61.1875 283.241 60.9009 283.381C60.3395 283.588 59.762 283.748 59.1743 283.859C58.7227 283.892 58.2694 283.897 57.8172 283.872H57.8045C57.4924 283.803 57.1841 283.718 56.8807 283.617C56.7278 283.541 56.5812 283.451 56.4347 283.362C56.3774 283.311 56.3264 283.26 56.2945 283.228C56.2323 283.172 56.1748 283.11 56.1226 283.044C56.1226 283.043 56.1224 283.042 56.1221 283.041C56.1218 283.04 56.1213 283.04 56.1207 283.039C56.1201 283.038 56.1194 283.038 56.1186 283.038C56.1178 283.037 56.117 283.037 56.1162 283.037C56.0461 282.91 55.9696 282.782 55.8996 282.655C55.8959 282.651 55.8937 282.647 55.8932 282.642C55.8422 282.483 55.7976 282.317 55.7594 282.151C55.7456 281.86 55.7477 281.569 55.7658 281.278C55.8513 280.871 55.9662 280.471 56.1098 280.08C56.2388 279.803 56.3856 279.535 56.5494 279.277C56.5622 279.252 56.6259 279.15 56.696 279.035C56.7023 279.028 56.7023 279.028 56.7023 279.022C56.7979 278.914 56.8935 278.799 56.9954 278.697C57.1674 278.506 57.3522 278.34 57.5369 278.168C57.8963 277.933 58.2685 277.718 58.6519 277.524C59.2601 277.308 59.8842 277.14 60.5186 277.021C61.4541 276.947 62.3943 276.955 63.3283 277.046C64.2129 277.2 65.0857 277.415 65.9404 277.69C65.4224 278.696 64.8326 279.663 64.1756 280.583C64.1501 280.622 64.1247 280.66 64.0992 280.692ZM57.0145 278.595C56.9583 278.685 56.8921 278.769 56.817 278.844C56.8675 278.75 56.9344 278.666 57.0145 278.595Z" fill="#3F3D56"/>
<path d="M148.402 202.481C148.345 204.482 148.287 206.483 148.23 208.484C148.109 212.926 147.984 217.37 147.854 221.817C147.72 226.82 147.58 231.82 147.434 236.819C147.363 239.4 147.291 241.981 147.217 244.562C147.019 251.515 146.824 258.466 146.631 265.415C146.612 266.135 146.586 266.849 146.567 267.569C146.472 271.017 146.376 274.465 146.28 277.913C146.172 281.654 146.066 285.395 145.962 289.136C145.885 291.94 145.807 294.746 145.726 297.555C145.153 317.904 144.579 338.254 144.006 358.603C143.982 359.863 143.47 361.065 142.58 361.956C141.689 362.847 140.487 363.359 139.228 363.383C137.963 363.373 136.754 362.866 135.86 361.972C134.966 361.078 134.459 359.868 134.449 358.603C134.768 347.157 135.091 335.711 135.418 324.265C135.704 313.915 135.995 303.565 136.29 293.215C136.386 289.805 136.482 286.393 136.577 282.98C136.724 277.843 136.868 272.706 137.01 267.569C137.03 266.849 137.055 266.135 137.074 265.415C137.087 264.784 137.106 264.16 137.125 263.529C137.405 253.555 137.686 243.579 137.966 233.601C138.081 229.675 138.191 225.747 138.297 221.817C138.425 217.336 138.552 212.858 138.68 208.382C138.737 206.413 138.788 204.45 138.845 202.481C138.87 201.22 139.381 200.019 140.272 199.127C141.163 198.236 142.364 197.725 143.624 197.701C144.888 197.711 146.097 198.218 146.991 199.112C147.885 200.006 148.392 201.216 148.402 202.481Z" fill="#3F3D56"/>
<path d="M410.527 203.807C405.517 222.786 399.528 241.493 392.585 259.853C390.67 264.917 388.71 269.972 386.615 274.965L387.096 273.823C386.161 276.201 384.967 278.469 383.535 280.586C383.438 280.723 383.339 280.858 383.238 280.992C383.733 280.358 383.827 280.233 383.52 280.616C383.358 280.808 383.198 281 383.031 281.187C382.585 281.686 382.106 282.155 381.598 282.591C381.47 282.701 381.34 282.808 381.208 282.913L381.806 282.448C381.736 282.612 381.25 282.829 381.098 282.921C380.607 283.218 380.095 283.477 379.566 283.698L380.707 283.216C379.84 283.566 378.936 283.814 378.012 283.956L379.282 283.785C378.374 283.911 377.454 283.92 376.544 283.814L377.814 283.985C377.069 283.883 376.34 283.686 375.645 283.401L376.786 283.883C376.415 283.721 376.057 283.53 375.717 283.311C375.544 283.199 375.012 282.796 375.707 283.327C376.429 283.879 375.8 283.375 375.651 283.228C375.527 283.106 375.416 282.973 375.295 282.849C374.733 282.272 375.929 283.841 375.548 283.166C375.343 282.828 375.157 282.48 374.988 282.123L375.47 283.265C375.25 282.722 375.095 282.155 375.006 281.575L375.177 282.846C375.085 282.126 375.085 281.397 375.175 280.676L375.004 281.947C375.121 281.142 375.333 280.355 375.638 279.601L375.156 280.743C375.368 280.236 375.619 279.746 375.906 279.278C376.039 279.036 376.194 278.808 376.371 278.595C376.402 278.606 375.562 279.56 376.008 279.078C376.124 278.952 376.233 278.819 376.351 278.694C376.54 278.494 376.742 278.311 376.941 278.122C377.606 277.488 376.01 278.738 376.778 278.236C377.334 277.87 377.92 277.55 378.529 277.281L377.388 277.762C378.408 277.343 379.477 277.056 380.57 276.909L379.3 277.079C380.669 276.922 382.052 276.938 383.416 277.128L382.146 276.957C383.874 277.219 385.563 277.695 387.174 278.372L386.032 277.89C389.466 279.365 392.507 281.554 395.543 283.701C398.475 285.825 401.565 287.723 404.785 289.377C411.712 292.823 419.169 295.079 426.843 296.052C437.85 297.401 449.019 295.963 459.325 291.871C469.631 287.779 478.745 281.163 485.831 272.63C486.695 271.713 487.193 270.51 487.23 269.25C487.221 267.984 486.719 266.772 485.831 265.87C484.078 264.261 480.766 263.806 479.073 265.87C477.469 267.83 475.744 269.687 473.908 271.432C473.051 272.245 472.172 273.033 471.269 273.796C470.754 274.232 470.231 274.66 469.701 275.078C469.451 275.276 468.67 275.803 469.869 274.952C469.594 275.147 469.331 275.36 469.059 275.561C465.047 278.52 460.699 280.994 456.106 282.931L457.247 282.449C452.318 284.518 447.142 285.936 441.847 286.67L443.118 286.499C437.671 287.216 432.154 287.208 426.71 286.475L427.98 286.646C422.537 285.898 417.214 284.448 412.143 282.331L413.285 282.813C408.392 280.647 403.748 277.957 399.436 274.788C397.192 273.126 394.825 271.636 392.356 270.331C389.479 268.861 386.365 267.914 383.157 267.534C377.144 266.826 371.016 269.169 367.71 274.366C364.667 279.149 364.707 285.993 368.967 290.06C373.356 294.249 380.001 294.213 385.173 291.593C390.153 289.07 393.145 283.827 395.249 278.884C399.983 267.76 404.175 256.378 408.08 244.939C411.944 233.621 415.447 222.189 418.591 210.643C418.981 209.213 419.364 207.781 419.742 206.348C420.38 203.934 418.939 201.046 416.405 200.469C415.184 200.154 413.888 200.326 412.792 200.949C411.695 201.572 410.883 202.597 410.527 203.807Z" fill="#3F3D56"/>
<path d="M458.204 202.481L456.484 263.531L454.773 324.263L453.806 358.604C453.816 359.868 454.323 361.078 455.217 361.972C456.111 362.866 457.32 363.373 458.584 363.384C459.844 363.359 461.045 362.848 461.936 361.957C462.827 361.065 463.338 359.864 463.362 358.604L465.082 297.553L466.793 236.821L467.761 202.481C467.75 201.216 467.243 200.007 466.349 199.113C465.455 198.218 464.246 197.711 462.982 197.701C461.723 197.725 460.521 198.236 459.63 199.128C458.74 200.019 458.228 201.22 458.204 202.481Z" fill="#3F3D56"/>
<path opacity="0.2" d="M292.811 341.558H294.295V273.977H328.909V272.496H294.295V243.98H321.026C320.634 243.482 320.23 242.989 319.816 242.504H294.295V223.669C293.804 223.46 293.31 223.258 292.811 223.068V242.504H263.726V218.372C263.228 218.394 262.737 218.429 262.242 218.471V242.504H239.038V224.499C238.54 224.719 238.049 224.952 237.562 225.195V242.504H218.057V243.98H237.562V272.496H218.057V273.977H237.562V341.558H239.038V273.977C242.086 273.976 245.103 274.576 247.919 275.742C250.734 276.909 253.293 278.618 255.447 280.774C257.602 282.929 259.311 285.488 260.477 288.305C261.643 291.121 262.243 294.139 262.242 297.188V341.558H263.726V273.977H292.811V341.558ZM239.038 272.496V243.98H262.242V272.496H239.038ZM263.726 272.496V243.98H264.308C268.051 243.98 271.758 244.718 275.216 246.151C278.675 247.585 281.817 249.685 284.464 252.333C287.111 254.981 289.21 258.125 290.642 261.584C292.075 265.044 292.812 268.752 292.811 272.496H263.726Z" fill="black"/>
<path d="M283.75 321.295C281.882 329.63 277.407 337.153 270.976 342.772C270.504 343.18 270.033 343.575 269.542 343.964C268.351 344.072 267.168 344.183 265.993 344.295C265.019 344.385 264.057 344.48 263.101 344.569L262.929 344.588L262.808 343.543L262.324 339.312C260.445 336.244 259.281 332.793 258.917 329.214C258.553 325.635 258.999 322.02 260.221 318.637C261.903 314.099 264.949 310.091 267.943 306.114C272.078 300.62 276.098 295.19 276.245 288.492C278.279 291.097 279.971 293.952 281.278 296.988C280.044 297.568 278.936 298.385 278.016 299.39C277.755 299.677 277.493 300.079 277.672 300.423C277.825 300.716 278.207 300.786 278.538 300.824C279.335 300.907 280.137 300.99 280.934 301.073C281.571 301.143 282.208 301.207 282.845 301.277C283.616 303.807 284.139 306.407 284.406 309.039C284.835 313.133 284.614 317.27 283.75 321.295Z" fill="#3F3D56"/>
<path d="M304.902 304.591C301.143 307.325 298.945 311.258 297.238 315.591C295.488 316.152 293.914 317.158 292.67 318.51C292.409 318.797 292.147 319.199 292.326 319.543C292.479 319.836 292.861 319.906 293.192 319.944C293.989 320.027 294.791 320.11 295.588 320.193C293.88 325.317 292.313 330.619 289.293 334.947C287.285 337.804 284.667 340.179 281.629 341.9C280.8 342.372 279.945 342.795 279.067 343.168C275.831 343.417 272.656 343.682 269.543 343.965C268.351 344.073 267.168 344.183 265.994 344.296C265.019 344.385 264.057 344.481 263.101 344.57C263.095 344.22 263.095 343.869 263.101 343.518C263.303 334.181 266.737 325.203 272.817 318.115C273.104 317.784 273.397 317.459 273.697 317.134C276.777 313.842 280.4 311.105 284.406 309.04C290.72 305.756 297.796 304.22 304.902 304.591Z" fill="#6225C5"/>
<path d="M267.096 341.026L266.363 343.193L265.994 344.295C265.019 344.384 264.057 344.48 263.101 344.569L262.929 344.588C261.872 344.697 260.82 344.805 259.769 344.913C259.495 344.595 259.221 344.27 258.954 343.938C252.304 335.883 249.111 325.522 250.075 315.119C251.038 304.716 256.079 295.118 264.095 288.422C263.254 292.826 264.235 297.045 265.847 301.232C265.675 301.302 265.51 301.372 265.35 301.449C264.117 302.029 263.009 302.845 262.088 303.851C261.827 304.138 261.566 304.539 261.744 304.884C261.897 305.177 262.279 305.247 262.611 305.285C263.407 305.368 264.21 305.451 265.006 305.534C265.643 305.604 266.28 305.668 266.918 305.738C267.217 305.769 267.516 305.801 267.816 305.833C267.861 305.929 267.899 306.018 267.943 306.114C269.759 310.052 271.715 314.01 272.817 318.114C273.094 319.144 273.311 320.189 273.467 321.243C273.958 324.808 273.64 328.437 272.537 331.861C271.434 335.286 269.574 338.418 267.096 341.026Z" fill="#6225C5"/>
<path d="M331.226 248.591C325.741 237.889 317.244 228.884 307.25 222.267C297.224 215.66 285.72 211.635 273.762 210.554C272.194 210.411 270.623 210.328 269.048 210.303C267.186 210.275 239.189 218.354 229.81 224.95C220.436 231.466 212.725 240.095 207.299 250.141C201.882 260.242 199.218 271.591 199.573 283.048C200.038 294.574 203.249 305.822 208.941 315.854C214.554 325.854 222.525 334.331 232.16 340.547C241.932 346.784 251.748 363.322 263.286 363.906C274.91 364.494 288.167 348.894 298.77 344.157C309.372 339.381 318.538 331.909 325.353 322.485C331.977 313.25 336.261 302.546 337.84 291.29C339.48 279.766 338.716 267.88 334.781 256.865C333.772 254.035 332.584 251.271 331.226 248.591C330.092 246.357 326.769 245.534 324.688 246.876C323.616 247.536 322.84 248.584 322.521 249.802C322.202 251.02 322.364 252.314 322.974 253.416C323.64 254.728 324.259 256.061 324.831 257.416L324.35 256.275C326.516 261.485 327.989 266.957 328.731 272.55L328.56 271.28C329.349 277.348 329.335 283.495 328.518 289.56L328.689 288.289C327.863 294.353 326.245 300.283 323.876 305.926L324.357 304.784C323.139 307.663 321.718 310.453 320.107 313.132C319.29 314.485 318.423 315.807 317.507 317.097C317.104 317.663 316.69 318.219 316.272 318.774C315.726 319.498 317.015 317.829 316.451 318.538C316.355 318.659 316.26 318.781 316.164 318.901C315.874 319.263 315.581 319.622 315.283 319.977C313.297 322.348 311.129 324.56 308.8 326.594C308.219 327.101 307.629 327.596 307.03 328.08C306.731 328.321 306.436 328.573 306.125 328.797C306.136 328.788 307.131 328.032 306.542 328.471C306.357 328.609 306.174 328.749 305.988 328.887C304.752 329.803 303.484 330.672 302.182 331.495C299.185 333.383 296.042 335.027 292.781 336.41L293.922 335.928C288.298 338.297 282.387 339.915 276.34 340.741L277.611 340.57C271.567 341.387 265.442 341.398 259.396 340.603L260.666 340.773C255.171 340.035 249.796 338.582 244.678 336.449L245.819 336.931C242.855 335.679 239.996 334.189 237.272 332.476C235.923 331.626 234.61 330.724 233.332 329.769C233.15 329.633 232.969 329.495 232.787 329.358C232.204 328.917 233.206 329.682 233.214 329.688C232.875 329.444 232.549 329.184 232.236 328.907C231.619 328.404 231.011 327.89 230.413 327.364C228.021 325.256 225.786 322.974 223.728 320.538C223.213 319.929 222.709 319.311 222.216 318.683C222.002 318.412 221.612 317.861 222.473 319.021C222.36 318.868 222.242 318.718 222.128 318.567C221.853 318.202 221.582 317.835 221.315 317.465C220.38 316.17 219.49 314.844 218.647 313.485C216.742 310.409 215.079 307.19 213.674 303.856L214.156 304.998C211.857 299.526 210.284 293.775 209.479 287.894L209.65 289.165C208.924 283.744 208.913 278.251 209.619 272.827L209.448 274.098C210.172 268.845 211.585 263.711 213.65 258.828L213.168 259.97C214.467 256.913 216 253.961 217.752 251.139C218.63 249.727 219.559 248.35 220.541 247.006C220.764 246.701 220.99 246.398 221.218 246.096C221.425 245.824 221.992 245.145 221.024 246.344C221.119 246.226 221.21 246.105 221.304 245.987C221.843 245.304 222.395 244.631 222.96 243.97C225.099 241.465 227.416 239.117 229.894 236.946C230.52 236.397 231.156 235.86 231.802 235.334C232.095 235.095 232.391 234.859 232.688 234.625C232.807 234.532 232.927 234.44 233.046 234.346C231.773 235.359 232.692 234.621 232.981 234.405C234.312 233.407 235.679 232.459 237.081 231.561C240.198 229.567 243.477 227.839 246.884 226.394L245.743 226.876C250.687 224.799 272.591 219.898 276.575 220.433L275.305 220.262C281.16 221.08 286.883 222.662 292.328 224.967L291.187 224.485C293.946 225.657 296.627 227.004 299.214 228.519C300.507 229.277 301.774 230.076 303.016 230.917C303.604 231.315 304.186 231.722 304.761 232.137C305.048 232.345 305.334 232.555 305.619 232.767C305.777 232.885 305.933 233.005 306.091 233.123C306.753 233.62 305.179 232.404 305.873 232.953C308.196 234.779 310.402 236.748 312.478 238.85C313.498 239.889 314.483 240.961 315.433 242.066C315.92 242.633 316.397 243.208 316.864 243.791C317.096 244.081 317.886 245.13 316.918 243.845C317.154 244.159 317.394 244.471 317.628 244.788C319.641 247.514 321.429 250.399 322.974 253.416C324.116 255.645 327.425 256.476 329.512 255.13C330.584 254.471 331.36 253.423 331.68 252.204C331.999 250.986 331.837 249.692 331.226 248.591Z" fill="#3F3D56"/>
<path d="M275.549 326.594C275.056 326.617 274.567 326.488 274.15 326.223C273.733 325.959 273.407 325.573 273.217 325.117C273.026 324.662 272.98 324.158 273.085 323.676C273.19 323.193 273.441 322.754 273.804 322.419C273.864 322.178 273.908 322.004 273.969 321.763C273.947 321.71 273.925 321.658 273.903 321.605C271.686 316.317 257.539 331.059 256.927 336.029C256.658 338.226 256.772 340.453 257.263 342.611C252.681 332.611 250.301 321.743 250.286 310.743C250.285 307.983 250.438 305.225 250.745 302.482C250.999 300.233 251.35 298 251.801 295.783C254.257 283.755 259.53 272.481 267.188 262.887C271.567 263.132 275.405 262.465 275.776 253.974C275.842 252.464 276.962 251.156 277.208 249.669C276.79 249.724 276.365 249.758 275.947 249.785C275.817 249.792 275.68 249.799 275.55 249.806L275.501 249.808C275.041 249.829 274.585 249.716 274.188 249.484C273.791 249.251 273.47 248.909 273.263 248.498C273.056 248.087 272.972 247.625 273.021 247.168C273.071 246.71 273.251 246.277 273.541 245.92C273.721 245.697 273.902 245.475 274.083 245.253C274.357 244.91 274.638 244.574 274.912 244.232C274.944 244.199 274.974 244.165 275.001 244.129C275.317 243.738 275.632 243.354 275.947 242.963C275.372 242.07 274.598 241.321 273.685 240.776C270.526 238.925 266.166 240.207 263.884 243.066C261.595 245.925 261.163 249.936 261.958 253.508C262.74 256.548 264.033 259.432 265.783 262.037C265.611 262.257 265.433 262.469 265.262 262.689C262.129 266.718 259.399 271.044 257.111 275.606C257.758 270.546 249.84 252.275 246.778 248.405C243.1 243.756 235.558 245.785 234.91 251.678C234.904 251.735 234.898 251.792 234.892 251.849C235.346 252.106 235.792 252.378 236.227 252.666C236.775 253.032 237.199 253.554 237.444 254.165C237.689 254.776 237.744 255.447 237.602 256.09C237.459 256.733 237.126 257.317 236.646 257.768C236.166 258.218 235.561 258.512 234.91 258.613L234.844 258.623C228.756 267.318 248.272 289.95 253.158 284.868C250.858 291.386 249.416 298.176 248.867 305.066C248.556 309.132 248.575 313.215 248.922 317.277L248.901 317.133C247.816 308.286 229.195 295.132 223.757 296.227C220.624 296.859 217.539 296.715 218.015 299.876C218.022 299.926 218.03 299.977 218.038 300.027C218.882 300.371 219.703 300.767 220.498 301.213C220.953 301.47 221.398 301.742 221.834 302.031C222.381 302.396 222.805 302.919 223.05 303.53C223.296 304.141 223.351 304.812 223.208 305.454C223.066 306.097 222.733 306.682 222.253 307.132C221.772 307.582 221.167 307.877 220.517 307.977L220.45 307.987C220.402 307.994 220.361 308.001 220.313 308.008C217.542 317.546 238.093 332.939 250.587 328.041H250.594C251.832 333.424 253.626 338.662 255.947 343.674H275.07C275.138 343.461 275.2 343.242 275.262 343.029C273.492 343.14 271.715 343.034 269.97 342.714C271.389 340.972 272.808 339.217 274.227 337.476C274.258 337.443 274.288 337.409 274.316 337.373C275.036 336.481 275.762 335.597 276.482 334.706L276.482 334.705C276.52 331.973 276.207 329.247 275.55 326.595L275.549 326.594ZM253.651 283.504L253.661 283.49L253.651 283.518V283.504ZM249.415 321.699L249.251 321.329C249.258 321.062 249.258 320.795 249.251 320.52C249.251 320.445 249.237 320.369 249.237 320.294C249.299 320.767 249.354 321.24 249.422 321.713L249.415 321.699Z" fill="#3F3D56"/>
<path d="M60.684 286.79C64.5546 286.79 67.6922 283.652 67.6922 279.78C67.6922 275.908 64.5546 272.77 60.684 272.77C56.8135 272.77 53.6758 275.908 53.6758 279.78C53.6758 283.652 56.8135 286.79 60.684 286.79Z" fill="#3F3D56"/>
<path d="M144.783 363.268C148.653 363.268 151.791 360.129 151.791 356.258C151.791 352.386 148.653 349.247 144.783 349.247C140.912 349.247 137.774 352.386 137.774 356.258C137.774 360.129 140.912 363.268 144.783 363.268Z" fill="#3F3D56"/>
<path d="M463.976 363.268C467.847 363.268 470.984 360.129 470.984 356.258C470.984 352.386 467.847 349.247 463.976 349.247C460.105 349.247 456.968 352.386 456.968 356.258C456.968 360.129 460.105 363.268 463.976 363.268Z" fill="#3F3D56"/>
<path d="M481.178 274.044C485.049 274.044 488.186 270.906 488.186 267.034C488.186 263.162 485.049 260.023 481.178 260.023C477.308 260.023 474.17 263.162 474.17 267.034C474.17 270.906 477.308 274.044 481.178 274.044Z" fill="#3F3D56"/>
<path d="M460.79 209.038C464.661 209.038 467.799 205.9 467.799 202.028C467.799 198.156 464.661 195.018 460.79 195.018C456.92 195.018 453.782 198.156 453.782 202.028C453.782 205.9 456.92 209.038 460.79 209.038Z" fill="#3F3D56"/>
<path d="M168.356 267.034C168.352 268.825 167.659 270.545 166.422 271.84C165.185 273.134 163.498 273.903 161.71 273.988C159.922 274.072 158.169 273.466 156.816 272.294C155.462 271.123 154.61 269.475 154.437 267.693C154.264 265.91 154.782 264.13 155.885 262.719C156.988 261.308 158.59 260.376 160.361 260.114C162.132 259.853 163.936 260.282 165.399 261.314C166.862 262.346 167.873 263.901 168.222 265.657C168.312 266.111 168.357 266.572 168.356 267.034Z" fill="#3F3D56"/>
<path d="M308.521 229.433C312.391 229.433 315.529 226.294 315.529 222.422C315.529 218.55 312.391 215.412 308.521 215.412C304.65 215.412 301.513 218.55 301.513 222.422C301.513 226.294 304.65 229.433 308.521 229.433Z" fill="#3F3D56"/>
<path d="M239.076 222.422C239.071 224.213 238.379 225.933 237.142 227.228C235.905 228.522 234.218 229.291 232.43 229.376C230.641 229.46 228.889 228.854 227.535 227.682C226.182 226.511 225.33 224.863 225.157 223.081C224.984 221.299 225.502 219.518 226.605 218.107C227.707 216.697 229.31 215.764 231.081 215.503C232.852 215.241 234.656 215.671 236.119 216.702C237.582 217.734 238.593 219.289 238.942 221.045C239.032 221.499 239.076 221.96 239.076 222.422Z" fill="#3F3D56"/>
<path d="M148.606 202.028C148.602 203.819 147.909 205.539 146.672 206.834C145.435 208.128 143.748 208.897 141.96 208.982C140.172 209.066 138.419 208.46 137.066 207.288C135.712 206.117 134.86 204.469 134.687 202.687C134.514 200.905 135.032 199.124 136.135 197.713C137.238 196.303 138.84 195.37 140.611 195.109C142.382 194.847 144.186 195.277 145.649 196.308C147.112 197.34 148.123 198.895 148.472 200.651C148.562 201.105 148.607 201.566 148.606 202.028Z" fill="#3F3D56"/>
<path d="M381.789 289.34C385.659 289.34 388.797 286.202 388.797 282.33C388.797 278.458 385.659 275.319 381.789 275.319C377.918 275.319 374.78 278.458 374.78 282.33C374.78 286.202 377.918 289.34 381.789 289.34Z" fill="#3F3D56"/>
<path d="M271.568 225.609C277.198 225.609 281.762 221.044 281.762 215.412C281.762 209.78 277.198 205.215 271.568 205.215C265.938 205.215 261.374 209.78 261.374 215.412C261.374 221.044 265.938 225.609 271.568 225.609Z" fill="#3F3D56"/>
<path d="M547.241 363.804L0.758593 364C0.658972 364 0.560325 363.98 0.468287 363.942C0.37625 363.904 0.292628 363.848 0.222186 363.777C0.151744 363.707 0.0958594 363.623 0.0577363 363.531C0.0196133 363.439 0 363.34 0 363.241C0 363.141 0.0196133 363.043 0.0577363 362.95C0.0958594 362.858 0.151744 362.775 0.222186 362.704C0.292628 362.634 0.37625 362.578 0.468287 362.54C0.560325 362.502 0.658972 362.482 0.758593 362.482L547.241 362.286C547.442 362.287 547.635 362.367 547.776 362.509C547.918 362.651 547.998 362.844 547.998 363.045C547.998 363.246 547.918 363.439 547.776 363.581C547.635 363.723 547.442 363.803 547.241 363.804Z" fill="#CACACA"/>
</g>
<defs>
<clipPath id="clip0_707_2">
<rect width="548" height="364" fill="white"/>
</clipPath>
</defs>
</svg>
